<?xml version="1.0" standalone="no"?><!DOCTYPE svg PUBLIC "-//W3C//DTD SVG 1.1//EN" "http://www.w3.org/Graphics/SVG/1.1/DTD/svg11.dtd"><svg t="1730079215112" class="icon" viewBox="0 0 1024 1024" version="1.1" xmlns="http://www.w3.org/2000/svg" p-id="2919" xmlns:xlink="http://www.w3.org/1999/xlink" width="128" height="128"><path d="M512.2 187.7c-188.6 0-341.5 152.9-341.5 341.5s152.9 341.5 341.5 341.5c18.9 0 37.5-1.6 55.6-4.5C698 844.9 803.4 750 839.9 625.6c9-30.6 13.8-62.9 13.8-96.4 0.1-188.6-152.9-341.5-341.5-341.5z m-35.2 451l-72.4-72.4c-20.4-20.4-20.4-52 0-72.4l72.4-72.4c20.4-20.4 52-20.4 72.4 0l72.4 72.4c18.6 20.4 18.6 52 0 72.4l-72.4 72.4c-20.5 20.4-52 20.4-72.4 0z" fill="#FFB034" p-id="2920"></path></svg>