<?xml version="1.0" standalone="no"?><!DOCTYPE svg PUBLIC "-//W3C//DTD SVG 1.1//EN" "http://www.w3.org/Graphics/SVG/1.1/DTD/svg11.dtd"><svg t="1730105720835" class="icon" viewBox="0 0 1759 1024" version="1.1" xmlns="http://www.w3.org/2000/svg" p-id="1972" xmlns:xlink="http://www.w3.org/1999/xlink" width="219.875" height="128"><path d="M494.361912 673.131392s-135.895688-90.609328-155.30805-110.003385c-6.470787 0-12.941575 0-12.941574-6.470788-19.412362-6.470787-25.88315-12.941575-32.353937-38.824724a199.706621 199.706621 0 0 0-12.941575-71.178661 6.342653 6.342653 0 0 0-6.470788-6.470788l-103.532598-77.649448a8.969408 8.969408 0 0 0-12.941575 0 296.887414 296.887414 0 0 0-58.237086 155.308049c-6.470787 71.178661 25.88315 122.94496 38.824724 148.828111l-6.470787 6.470787c-12.941575-25.88315-45.295512-84.129389-38.824725-155.298898a296.942328 296.942328 0 0 1 58.237087-155.308049c0-12.941575 12.941575-12.941575 25.883149-6.470788l110.012539 77.649449c6.470787 6.470787 6.470787 6.470787 6.470787 12.941575a422.495739 422.495739 0 0 0 12.941575 71.178661c6.470787 25.88315 12.941575 25.88315 25.883149 32.353937 6.470787 0 6.470787 6.470787 12.941575 6.470787 25.88315 19.412362 155.298897 110.003386 155.298898 110.003386l-6.470788 6.470787z m200.594409-6.470787l-6.470787-6.470787 97.061811-129.415748-110.003386-77.649449-155.30805 213.545137-6.470787-6.470788 161.769685-220.006771 122.94496 90.609328z m0 0" fill="#666666" p-id="1973"></path><path d="M714.368684 640.768303l-122.944961-90.609328 45.295512-64.707874 122.94496 90.609328z m-110.003386-90.609328l103.532598 77.649448 38.833877-51.766299-103.514293-77.631144-38.824725 51.7663z m0 0" fill="#666666" p-id="1974"></path><path d="M604.37445 537.235705l-181.218657-122.944961-122.94496 77.649449-6.470787-6.470787 129.4249-90.609329 187.625377 129.415748-6.470787 12.941575z m-323.081746-281.428913l10.351429 7.770436-89.620863 118.981946-10.351429-7.761283 89.620863-118.981947z m0 0" fill="#666666" p-id="1975"></path><path d="M319.650653 381.927655l-84.120237-64.707874 32.353937-45.295512 90.609329 58.237087-45.295512 6.470787z m-71.178662-71.178662l51.766299 45.304665v-25.88315l25.88315-6.470787-51.766299-38.824725-25.88315 25.88315z m0 0l25.88315-51.766299A12.941575 12.941575 0 1 0 287.296716 246.04112a12.941575 12.941575 0 0 0-12.941575 12.941574z m252.351556 265.311436a38.824724 38.824724 0 1 1 38.833877-38.824724 41.753511 41.753511 0 0 1-38.833877 38.824724z m0-64.707874a25.88315 25.88315 0 1 0 25.88315 25.88315 27.832623 27.832623 0 0 0-25.88315-25.88315z m-304.13616-6.470787a32.353937 32.353937 0 0 1 0-64.707874c19.421515 6.470787 32.353937 19.412362 32.353937 32.353937a30.569208 30.569208 0 0 1-32.335632 32.353937z m0-51.766299a19.412362 19.412362 0 1 0 19.421515 19.412362 20.666249 20.666249 0 0 0-19.40321-19.421515z m582.389171-84.120237a19.412362 19.412362 0 0 1 0-38.824724 19.412362 19.412362 0 0 1 0 38.824724z m0-25.883149a6.333501 6.333501 0 0 0-6.470788 6.470787l6.470788 6.470788 6.470787-6.470788z m38.833876 129.415748a25.88315 25.88315 0 1 1 25.88315-25.873997 27.832623 27.832623 0 0 1-25.873997 25.864844z m0-38.824725a12.941575 12.941575 0 1 0 12.941575 12.941575 13.920888 13.920888 0 0 0-12.932422-12.950727z m0 0l-640.672019 310.606948a12.941575 12.941575 0 1 0 12.941575-12.941575 12.941575 12.941575 0 0 0-12.941575 12.941575z m0 0l698.863344-394.727183a19.421515 19.421515 0 0 1 0-38.833877 17.160858 17.160858 0 0 1 19.412362 19.412362 368.972168 368.972168 0 0 1-660.029467 330.01931z m0-25.883149c-6.470787 0-6.470787 6.470787 0 0-6.470787 6.470787-6.470787 12.941575 0 12.941575s6.470787 0 0-12.941575c64.717026-77.658601 64.717026-84.129389 58.246239-84.129389zM313.19817 588.974547a6.470787 6.470787 0 1 0 6.470787-6.470788 6.470787 6.470787 0 0 0-6.470787 6.470788z m0 0l-12.941575 25.883149a6.470787 6.470787 0 1 0 6.470788-6.470787 6.470787 6.470787 0 0 0-6.470788 6.470787z m0 0l-19.412362 25.883149a6.470787 6.470787 0 1 0 6.470787-6.470787 6.47994 6.47994 0 0 0-6.470787 6.470787z m0 0l271.782223-25.88315a35.584754 35.584754 0 0 1-19.412362-32.353937 41.762663 41.762663 0 0 1 38.824724-38.833877 33.616976 33.616976 0 0 1 25.88315 12.941575l-12.941575 12.941575c-6.470787-6.470787-12.941575-12.941575-19.412362-12.941575a27.832623 27.832623 0 0 0-25.873997 25.88315 33.626129 33.626129 0 0 0 12.941575 25.883149v6.470787z m-122.94496-84.120237c-6.470787 0-12.941575-6.470787-19.412363-6.470787L93.191399 440.146436l6.470787-6.470787 77.649449 58.237087c12.941575 6.461635 25.88315 6.461635 32.353937-6.470788a23.796389 23.796389 0 0 0 6.470787-19.412362c0-6.470787-6.470787-12.941575-12.941575-19.412362l-58.237086-45.295512 6.470787-6.470787 58.237087 45.295511a33.616976 33.616976 0 0 1 12.941575 25.88315 38.907096 38.907096 0 0 1-6.470788 25.88315c0 6.461635-6.470787 6.461635-25.883149 12.941574zM79.856268 522.646688l5.308426 3.660983-77.521315 111.65998-5.308425-3.660983z m0 0" fill="#666666" p-id="1976"></path><path d="M798.498072 686.063815a33.607824 33.607824 0 0 1-25.883149-12.941575c-6.470787-6.470787-6.470787-6.470787-12.941575-6.470787a22.579112 22.579112 0 0 0-12.941575 6.470787 32.363089 32.363089 0 0 1-51.766299 0c-6.470787-6.470787-6.470787-6.470787-12.950727-6.470787a22.597417 22.597417 0 0 0-12.941575 6.470787 32.363089 32.363089 0 0 1-51.766299 0c-6.470787-6.470787-6.470787-6.470787-12.941575-6.470787a22.597417 22.597417 0 0 0-12.941575 6.470787 33.598671 33.598671 0 0 1-25.883149 12.941575 49.42327 49.42327 0 0 1-32.353937-12.941575c-6.470787-6.470787-6.470787-6.470787-12.941575-6.470787a22.597417 22.597417 0 0 0-12.941575 6.470787 32.363089 32.363089 0 0 1-51.766299 0c-6.470787-6.470787-6.470787-6.470787-12.941575-6.470787a22.597417 22.597417 0 0 0-12.941575 6.470787 32.353937 32.353937 0 0 1-51.766299 0c-6.470787-6.470787-6.470787-6.470787-12.941575-6.470787a22.579112 22.579112 0 0 0-12.941574 6.470787 32.363089 32.363089 0 0 1-51.7663 0c-6.470787-6.470787-6.470787-6.470787-12.941574-6.470787a22.597417 22.597417 0 0 0-12.941575 6.470787 32.363089 32.363089 0 0 1-51.766299 0c-6.470787-6.470787-6.470787-6.470787-12.941575-6.470787a22.597417 22.597417 0 0 0-12.941575 6.470787 32.353937 32.353937 0 0 1-51.766299 0c-6.470787-6.470787-6.470787-6.470787-12.941575-6.470787a22.597417 22.597417 0 0 0-12.941575 6.470787 33.616976 33.616976 0 0 1-25.883149 12.941575 33.607824 33.607824 0 0 1-25.892302-12.950727c-6.470787-6.470787-6.470787-6.470787-12.941575-6.470788a6.470787 6.470787 0 1 1 0-12.941575 33.598671 33.598671 0 0 1 25.88315 12.941575c6.470787 6.470787 6.470787 6.470787 12.941574 6.470788a22.579112 22.579112 0 0 0 12.941575-6.470788c0-6.470787 6.470787-12.941575 19.412362-12.941575a33.598671 33.598671 0 0 1 25.88315 12.941575c6.470787 6.470787 6.470787 6.470787 12.941575 6.470788a22.579112 22.579112 0 0 0 12.941574-6.470788 32.353937 32.353937 0 0 1 51.7663 0c6.470787 6.470787 6.470787 6.470787 12.941574 6.470788a22.597417 22.597417 0 0 0 12.941575-6.470788 32.353937 32.353937 0 0 1 51.766299 0c6.470787 6.470787 6.470787 6.470787 12.941575 6.470788a22.597417 22.597417 0 0 0 12.941575-6.470788c12.941575-6.470787 19.412362-12.941575 25.883149-12.941575a33.607824 33.607824 0 0 1 25.88315 12.941575c6.470787 6.470787 6.470787 6.470787 12.941575 6.470788a22.597417 22.597417 0 0 0 12.941575-6.470788c12.941575-6.470787 19.412362-12.941575 32.353937-12.941575a33.626129 33.626129 0 0 1 25.883149 12.941575c6.470787 6.470787 6.470787 6.470787 12.941575 6.470788a22.597417 22.597417 0 0 0 12.941575-6.470788 32.353937 32.353937 0 0 1 51.766299 0c6.470787 6.470787 6.470787 6.470787 12.941575 6.470788a22.597417 22.597417 0 0 0 12.941574-6.470788 32.353937 32.353937 0 0 1 51.7663 0c6.470787 6.470787 6.470787 6.470787 12.941574 6.470788a22.597417 22.597417 0 0 0 12.941575-6.470788c12.941575-6.470787 19.412362-12.941575 25.88315-12.941575a33.626129 33.626129 0 0 1 25.883149 12.941575c6.470787 6.470787 6.470787 6.470787 12.941575 6.470788a22.588265 22.588265 0 0 0 12.941575-6.470788 32.353937 32.353937 0 0 1 51.766299 0c6.470787 6.470787 6.470787 6.470787 12.941575 6.470788a22.597417 22.597417 0 0 0 12.941575-6.470788 33.626129 33.626129 0 0 1 25.883149-12.941575 6.470787 6.470787 0 1 1 0 12.941575 22.579112 22.579112 0 0 0-12.941575 6.470788c0 6.470787-6.470787 12.941575-19.412362 12.941574zM21.98528 666.660605a6.470787 6.470787 0 1 0 6.470787-6.470787 6.470787 6.470787 0 0 0-6.470787 6.470787z m0 0" fill="#666666" p-id="1977"></path><path d="M759.673348 744.300901h-32.353937a6.470787 6.470787 0 0 1 0-12.941574H759.673348a8.960256 8.960256 0 0 1 0 12.941574z m-84.120236-12.941574c6.470787 6.470787 6.470787 0 0 0z m-135.886536 64.707873c6.470787 6.470787 6.470787 0 0 0z m-51.766299-51.766299H371.416952a6.470787 6.470787 0 1 1 0-12.941574h110.003385c6.470787 0 12.941575 6.470787 6.470788 12.941574z m-161.769685 0H306.71823a6.470787 6.470787 0 1 1 0-12.941574h19.412362c6.470787 0 6.470787 6.470787 0 12.941574z" fill="#666666" p-id="1978"></path><path d="M79.819658 767.374246H61.615421a6.772818 6.772818 0 0 0 0 13.545637h17.609328a6.855191 6.855191 0 0 0 6.525702-6.772818 6.232824 6.232824 0 0 0-5.930793-6.772819z m320.418382 0H104.540446a6.772818 6.772818 0 0 0 0 13.545637h295.304038a6.855191 6.855191 0 0 0 6.525703-6.772818 6.51655 6.51655 0 0 0-6.132147-6.772819z m38.367102 0h-11.898195a6.772818 6.772818 0 0 0 0 13.545637h11.898195a6.772818 6.772818 0 0 0 0-13.545637z m433.753262 0H461.550352a6.772818 6.772818 0 0 0 0 13.545637h410.808052a6.772818 6.772818 0 0 0 0-13.545637z m58.346916 0h-22.542503a6.772818 6.772818 0 0 0 0 13.545637h22.551655a6.855191 6.855191 0 0 0 6.525702-6.772818 7.00163 7.00163 0 0 0-6.534854-6.772819zM468.076055 849.462637h-17.993732a6.772818 6.772818 0 0 0 0 13.545637h17.600176a6.846038 6.846038 0 0 0 6.525702-6.772818 6.40672 6.40672 0 0 0-6.132146-6.772819z m399.340022-2.260657H753.486287a33.864092 33.864092 0 0 0-32.244108-26.066199 33.479689 33.479689 0 0 0-32.637663 27.905843H492.211085a6.855191 6.855191 0 0 0-6.525702 6.772819 6.992477 6.992477 0 0 0 6.525702 6.772818h196.402583a33.635281 33.635281 0 0 0 32.637664 27.905843 33.29664 33.29664 0 0 0 33.031218-30.20311h112.511159a6.846038 6.846038 0 0 0 6.525703-6.772818 5.99486 5.99486 0 0 0-5.930793-6.40672z m-145.972544 30.20311a21.352683 21.352683 0 1 1 20.766926-21.343531 21.114719 21.114719 0 0 1-20.766926 21.306921z" fill="#666666" p-id="1979"></path></svg>