<?xml version="1.0" standalone="no"?><!DOCTYPE svg PUBLIC "-//W3C//DTD SVG 1.1//EN" "http://www.w3.org/Graphics/SVG/1.1/DTD/svg11.dtd"><svg t="1730170995292" class="icon" viewBox="0 0 1126 1024" version="1.1" xmlns="http://www.w3.org/2000/svg" p-id="3297" xmlns:xlink="http://www.w3.org/1999/xlink" width="140.75" height="128"><path d="M607.1296 1009.3568a70.0416 70.0416 0 0 1-85.7088 0C389.2224 914.2784 0 607.0784 0 346.2144c0-48.7424 4.9152-82.944 17.152-107.264C61.184 99.9424 190.9248 0 342.7328 0c75.8784 0 146.8928 26.8288 205.6192 68.2496 9.7792 7.3216 22.016 7.3216 29.3888 0C636.416 26.7776 707.4816 0 783.36 0c151.7568 0 279.04 99.9424 325.632 238.9504 12.1856 24.3712 17.1008 60.928 17.1008 109.7216 0 258.4064-389.2224 565.6064-518.9632 660.6848z m-249.7024-460.8C203.1616 455.8848 220.3136 307.2 220.3136 299.8784c2.4576-14.6432-7.3216-26.8288-19.5584-26.8288-12.288-2.4064-26.9312 7.3216-26.9312 21.9648 0 7.3216-24.4736 185.2928 159.1296 297.472a22.1696 22.1696 0 0 0 12.2368 2.4064 29.2352 29.2352 0 0 0 22.016-12.1856 30.0544 30.0544 0 0 0-9.7792-34.1504z" fill="#F5616F" p-id="3298"></path></svg>